<svg xmlns:inkscape="http://www.inkscape.org/namespaces/inkscape" xmlns:sodipodi="http://sodipodi.sourceforge.net/DTD/sodipodi-0.dtd" xmlns="http://www.w3.org/2000/svg" xmlns:svg="http://www.w3.org/2000/svg" xml:space="preserve" version="1.1" id="svg6" sodipodi:docname="logo-dark-bg.svg" inkscape:version="1.4.3 (0d15f75, 2025-12-25)" viewBox="25.06 21.7 346.19 350.63"><defs id="defs6"/><sodipodi:namedview id="namedview6" pagecolor="#ffffff" bordercolor="#999999" borderopacity="1" inkscape:showpageshadow="2" inkscape:pageopacity="0" inkscape:pagecheckerboard="0" inkscape:deskcolor="#d1d1d1" inkscape:zoom="0.840235" inkscape:cx="135.08126" inkscape:cy="268.3773" inkscape:window-width="1512" inkscape:window-height="840" inkscape:window-x="0" inkscape:window-y="33" inkscape:window-maximized="1" inkscape:current-layer="svg6"/><path fill="#00d16a" d="m 131,94 c -12,1 -25,-3 -35,5 -8,9 -5,22 -6,32 v 86 c 14,22 79,46 125,5 37.32558,-31.53699 43.15846,-87.30162 14.27995,-126.720053 C 162.92537,93.655778 162.84632,94 131,94 Z" id="path1" sodipodi:nodetypes="ccccccc"/><path fill="#001222" d="M90 129c2 12-1 25 0 37l157 1c0-6 5-41-7-38z" id="path2" style="fill:#e6e4e2;fill-opacity:1"/><path fill="#00d16a" d="m 306,253 c -7,-7 -14,-17 -24,-18 -6,0 -15,0 -9,-8 40,-64 13,-125 12,-128 -1.33333,-4 0,-5.666667 4,-5 l 64,1 c 10.17163,0.678061 14.52205,7.32717 17,16 v 128 c 1.33333,8.66667 0.33333,16 -3,22 -12,10 -32,6 -47,6 z" id="path3" sodipodi:nodetypes="sccsccccccs"/><path fill="#001222" d="M293 129q3 18 2 36c0 3 4 1 6 2h70v-38z" id="path4" style="fill:#e6e4e2;fill-opacity:1"/><path fill="#001222" d="M145 22C91 25 42 66 29 118a130 130 0 0 0 201 138c5-2 21 10 16 17-3 16 15 24 23 35l62 61c18 11 43-7 40-28-3-17-19-26-29-38l-57-55c-11-4-21 2-28-12-3-11 18-25 19-40A130 130 0 0 0 145 22m12 25a104 104 0 1 1-5 208 104 104 0 0 1 5-208" id="path5" style="fill:#e6e4e2;fill-opacity:1"/><path fill="#001222" d="m 348.36069,187.51952 -27,27 -9,-8 q -3,-5 -6,-1 l -7,7 21,21 8,-7 29,-29 z" id="path6"/></svg>